# xmcd
#
# Track frame offsets:
#	150
#	11848
#	23587
#	36094
#	47859
#	60650
#	71658
#	82733
#	95485
#	106196
#	116031
#	127498
#
# Disc length: 1831 seconds
#
# Revision: 0
# Processed by: cddbd v1.5.1PL0 Copyright (c) Steve Scherf et al.
# Submitted via: dBpowerAMP V4.0
#
DISCID=9f07250c
DTITLE=Lloyd Price - "Mr. Personality"
DYEAR=1900
DGENRE=
TTITLE0=Personality
TTITLE1=Question
TTITLE2=On Our Wedding Day
TTITLE3=Lawdy Miss Clawdy
TTITLE4=Just Because
TTITLE5=Im Gonna Get Mariied
TTITLE6=Stagger Lee
TTITLE7=Misty
TTITLE8=Lady Luck
TTITLE9=Come Into My Heart
TTITLE10=Have You Ever Had The Blues?
TTITLE11=Never Let Me Go
EXTD=
EXTT0=
EXTT1=
EXTT2=
EXTT3=
EXTT4=
EXTT5=
EXTT6=
EXTT7=
EXTT8=
EXTT9=
EXTT10=
EXTT11=
PLAYORDER=
